<svg id="Layer_1" version="1.1" viewBox="0 0 30 30" xml:space="preserve" xmlns="http://www.w3.org/2000/svg" enable-background="new 0 0 30 30"><path d="M6 9.3 3.9 5.8l1.4-1.4 3.5 2.1v1.4l3.6 3.6v.3L11.1 13 7.4 9.3H6zm15 8.5h-.8c-.7 0-1.3-.1-1.9-.2L16.2 20l4.7 5.3c1.1 1.2 3 1.3 4.1.1 1.2-1.2 1.1-3-.1-4.1L21 17.8zm3.4-3.8c1.6-1.6 2.1-4 1.5-6.1-.1-.4-.6-.5-.8-.2l-3.5 3.5-2.8-2.8 3.5-3.5c.3-.3.2-.7-.2-.8-2.1-.7-4.5-.2-6.1 1.5-1.8 1.8-2.2 4.6-1.2 6.8l-10 8.9c-1.2 1.1-1.3 3-.1 4.1 1.2 1.2 3 1.1 4.1-.1l8.9-10c2.2 1 4.9.6 6.7-1.3z" fill="#777777" class="fill-c6c9cc"></path></svg>