<svg data-name="027_APPLIANCES" viewBox="0 0 24 24" xmlns="http://www.w3.org/2000/svg"><path d="M19 17a1 1 0 0 1 0-2 1 1 0 0 0 1-1V6a1 1 0 0 0-1-1H5a1 1 0 0 0-1 1v8a1 1 0 0 0 1 1h10a1 1 0 0 1 0 2H5a3 3 0 0 1-3-3V6a3 3 0 0 1 3-3h14a3 3 0 0 1 3 3v8a3 3 0 0 1-3 3Z" fill="#ffffff" class="fill-333333"></path><path d="M16.29 8.71A1.05 1.05 0 0 1 16 8a1.05 1.05 0 0 1 .29-.71A1.05 1.05 0 0 1 17 7a1.05 1.05 0 0 1 .71.29A1.05 1.05 0 0 1 18 8a1.05 1.05 0 0 1-.29.71A1.05 1.05 0 0 1 17 9a1.05 1.05 0 0 1-.71-.29ZM17 13H7a1 1 0 0 1 0-2h10a1 1 0 0 1 0 2ZM8 22a1 1 0 0 1-1-1v-2a1 1 0 0 1 2 0v2a1 1 0 0 1-1 1ZM12 22a1 1 0 0 1-1-1v-2a1 1 0 0 1 2 0v2a1 1 0 0 1-1 1ZM16 22a1 1 0 0 1-1-1v-2a1 1 0 0 1 2 0v2a1 1 0 0 1-1 1Z" fill="#ffffff" class="fill-333333"></path></svg>