<svg data-name="027_APPLIANCES" viewBox="0 0 24 24" xmlns="http://www.w3.org/2000/svg"><path d="M21 21H3a1 1 0 0 1-1-1v-3a1 1 0 0 1 .35-.76l7-6A1 1 0 0 1 10 10h4a1 1 0 0 1 .65.24l7 6A1 1 0 0 1 22 17v3a1 1 0 0 1-1 1ZM4 19h16v-1.54L13.63 12h-3.26L4 17.46Z" fill="#ffffff" class="fill-333333"></path><path d="M14 12a1 1 0 0 1-1-1V3a1 1 0 0 1 2 0v8a1 1 0 0 1-1 1ZM10 12a1 1 0 0 1-1-1V3a1 1 0 0 1 2 0v8a1 1 0 0 1-1 1ZM16 20.5a1 1 0 0 1-1-1V18a1 1 0 0 1 2 0v1.5a1 1 0 0 1-1 1Z" fill="#ffffff" class="fill-333333"></path></svg>