<svg xmlns="http://www.w3.org/2000/svg" xmlns:xlink="http://www.w3.org/1999/xlink" width="192" height="192" viewBox="0 0 192 192">
  <defs>
    <clipPath id="clip-cooktop">
      <rect width="192" height="192"/>
    </clipPath>
  </defs>
  <g id="cooktop" clip-path="url(#clip-cooktop)">
    <g id="Rectangle_2" data-name="Rectangle 2" transform="translate(17 17)" fill="none" stroke="#fff" stroke-width="16">
      <rect width="158" height="158" rx="28" stroke="none"/>
      <rect x="8" y="8" width="142" height="142" rx="20" fill="none"/>
    </g>
    <g id="Ellipse_1" data-name="Ellipse 1" transform="translate(48 46)" fill="none" stroke="#fff" stroke-width="8">
      <circle cx="17" cy="17" r="17" stroke="none"/>
      <circle cx="17" cy="17" r="13" fill="none"/>
    </g>
    <g id="Ellipse_4" data-name="Ellipse 4" transform="translate(105 108)" fill="none" stroke="#fff" stroke-width="8">
      <ellipse cx="17.5" cy="17" rx="17.5" ry="17" stroke="none"/>
      <ellipse cx="17.5" cy="17" rx="13.5" ry="13" fill="none"/>
    </g>
    <g id="Path_2" data-name="Path 2" transform="translate(96 37)" fill="none">
      <path d="M26.5,0A26.254,26.254,0,0,1,53,26,26.254,26.254,0,0,1,26.5,52c-7.171,0-.6-13.949-5.573-18.681C16.162,28.786,0,33.323,0,26A26.254,26.254,0,0,1,26.5,0Z" stroke="none"/>
      <path d="M 26.5 8 C 17.4764289855957 8 9.940906524658203 14.31913375854492 8.321681976318359 22.64762306213379 C 9.264347076416016 22.73416900634766 10.28117752075195 22.79885482788086 11.10569381713867 22.8513069152832 C 16.34229278564453 23.1844310760498 22.27755355834961 23.5620002746582 26.44344520568848 27.52466201782227 C 31.25850486755371 32.10880279541016 31.09781837463379 38.639404296875 30.92596244812012 43.47943878173828 C 38.99696731567383 41.54459381103516 45 34.44165802001953 45 26 C 45 16.07476806640625 36.7009391784668 8 26.5 8 M 26.5 0 C 41.13553619384766 0 53 11.64059829711914 53 26 C 53 40.35939788818359 41.13553619384766 52 26.5 52 C 19.32858276367188 52 25.89838409423828 38.05147552490234 20.92724609375 33.31875610351562 C 16.16183090209961 28.78581619262695 0 33.32329177856445 0 26 C 0 11.64059829711914 11.86445999145508 0 26.5 0 Z" stroke="none" fill="#fff"/>
    </g>
    <g id="Path_1" data-name="Path 1" transform="translate(39 99)" fill="none">
      <path d="M26,0A26,26,0,0,1,52,26c0,7.079-13.921,2.127-18.707,7.015C28.77,37.638,33.28,52,26,52A26,26,0,0,1,26,0Z" stroke="none"/>
      <path d="M 26 8 C 16.07476806640625 8 8 16.07476806640625 8 26 C 8 34.7972526550293 14.34358596801758 42.14072418212891 22.6967830657959 43.69623565673828 C 22.74961853027344 43.08359909057617 22.79350280761719 42.46369171142578 22.83063125610352 41.93924713134766 C 23.15943145751953 37.29473876953125 23.56863021850586 31.51449203491211 27.57747650146484 27.41716957092285 C 31.88973808288574 23.01372337341309 38.12907791137695 22.66913795471191 42.68486022949219 22.41752243041992 C 42.97487258911133 22.4015064239502 43.29731750488281 22.38369941711426 43.63088607788086 22.36347770690918 C 41.9443359375 14.17560577392578 34.67973327636719 8 26 8 M 26 0 C 40.35939788818359 0 52 11.64059829711914 52 26 C 52 33.07918548583984 38.07921600341797 28.1273078918457 33.293212890625 33.01452255249023 C 28.77001571655273 37.63753890991211 33.28021621704102 52 26 52 C 11.64059829711914 52 0 40.35939788818359 0 26 C 0 11.64059829711914 11.64059829711914 0 26 0 Z" stroke="none" fill="#fff"/>
    </g>
  </g>
</svg>
