<svg data-name="027_APPLIANCES" viewBox="0 0 24 24" xmlns="http://www.w3.org/2000/svg"><path d="M19 19h-2.5a1 1 0 0 1 0-2H19a1 1 0 0 0 1-1V8a1 1 0 0 0-1-1H5a1 1 0 0 0-1 1v8a1 1 0 0 0 1 1h8a1 1 0 0 1 0 2H5a3 3 0 0 1-3-3V8a3 3 0 0 1 3-3h14a3 3 0 0 1 3 3v8a3 3 0 0 1-3 3Z" fill="#ffffff" class="fill-333333"></path><path d="M16 14a1 1 0 0 1 1-1 1 1 0 0 1 1 1 1 1 0 0 1-1 1 1 1 0 0 1-1-1Zm0-4a1 1 0 0 1 1-1 1 1 0 0 1 1 1 1 1 0 0 1-1 1 1 1 0 0 1-1-1ZM13 19a1 1 0 0 1-1-1V6a1 1 0 0 1 2 0v12a1 1 0 0 1-1 1ZM7 11.68A2.28 2.28 0 0 1 5.29 11a1 1 0 0 1 0-1.41 1 1 0 0 1 1.42 0c.18.18.31.21 1.18-.15a2.39 2.39 0 0 1 2.82.15 1 1 0 0 1 0 1.41 1 1 0 0 1-1.42 0l.71-.7-.71.7s-.39.18-.63.28a4.37 4.37 0 0 1-1.66.4ZM7 15.31a2.28 2.28 0 0 1-1.67-.72 1 1 0 0 1 0-1.41 1 1 0 0 1 1.42 0c.18.18.31.21 1.18-.16a2.41 2.41 0 0 1 2.82.16 1 1 0 0 1 0 1.41 1 1 0 0 1-1.42 0l.71-.7-.71.7s-.39.18-.63.28a4.37 4.37 0 0 1-1.7.44Z" fill="#ffffff" class="fill-333333"></path></svg>