<svg data-name="027_APPLIANCES" viewBox="0 0 24 24" xmlns="http://www.w3.org/2000/svg"><path d="M18 22H6a3 3 0 0 1-3-3v-4.86a1 1 0 0 1 2 0V19a1 1 0 0 0 1 1h12a1 1 0 0 0 1-1V5a1 1 0 0 0-1-1H6a1 1 0 0 0-1 1v5.64a1 1 0 0 1-2 0V5a3 3 0 0 1 3-3h12a3 3 0 0 1 3 3v14a3 3 0 0 1-3 3Z" fill="#ffffff" class="fill-333333"></path><path d="M15 7a1 1 0 0 1 1-1 1 1 0 0 1 1 1 1 1 0 0 1-1 1 1 1 0 0 1-1-1Zm-4 0a1 1 0 0 1 1-1 1 1 0 0 1 1 1 1 1 0 0 1-1 1 1 1 0 0 1-1-1ZM7 7a1 1 0 0 1 1-1 1 1 0 0 1 1 1 1 1 0 0 1-1 1 1 1 0 0 1-1-1ZM20 12H4a1 1 0 0 1 0-2h16a1 1 0 0 1 0 2ZM8.32 19a1 1 0 0 1-.71-.29 1 1 0 0 1 0-1.42c.18-.18.21-.31-.15-1.18a2.4 2.4 0 0 1 .15-2.82A1 1 0 1 1 9 14.71L8.32 14l.71.71a5.37 5.37 0 0 1 .27.63 2.8 2.8 0 0 1-.3 3.37 1 1 0 0 1-.68.29ZM12 19a1 1 0 0 1-.71-.29 1 1 0 0 1 0-1.42c.18-.18.21-.31-.15-1.18a2.39 2.39 0 0 1 .15-2.82 1 1 0 0 1 1.42 1.42L12 14l.7.71s.18.39.28.63a2.82 2.82 0 0 1-.27 3.37A1 1 0 0 1 12 19ZM15.58 19a1 1 0 0 1-.71-1.71c.18-.18.21-.31-.15-1.18a2.39 2.39 0 0 1 .15-2.82 1 1 0 0 1 1.41 0 1 1 0 0 1 0 1.42l-.7-.71.7.71s.18.39.28.63a2.81 2.81 0 0 1-.28 3.37 1 1 0 0 1-.7.29Z" fill="#ffffff" class="fill-333333"></path></svg>