<svg xmlns="http://www.w3.org/2000/svg" xmlns:xlink="http://www.w3.org/1999/xlink" width="192" height="192" viewBox="0 0 192 192">
  <defs>
    <clipPath id="clip-service_icon">
      <rect width="192" height="192"/>
    </clipPath>
  </defs>
  <g id="service_icon" clip-path="url(#clip-service_icon)">
    <path id="_211669_a_gear_icon" data-name="211669_a_gear_icon" d="M173.891,124.787c0-7.567,4.686-13.55,11.683-17.666a64.414,64.414,0,0,0-5-12.094c-7.883,2.058-14.247-1.013-19.629-6.4-5.351-5.351-7-11.746-4.939-19.629a63.551,63.551,0,0,0-12.094-5c-4.116,7.028-11.524,11.683-19.123,11.683-7.567,0-15.007-4.654-19.123-11.683A63.55,63.55,0,0,0,93.57,69c2.058,7.883.412,14.247-4.939,19.629-5.351,5.351-11.746,8.453-19.6,6.4A61.662,61.662,0,0,0,64,107.121c7.028,4.116,11.714,10.1,11.714,17.666S71.028,139.794,64,143.91A63.551,63.551,0,0,0,69,156c7.883-2.058,14.247-.412,19.6,4.939,5.382,5.351,7,11.746,4.939,19.629a64.414,64.414,0,0,0,12.094,5c4.116-7.029,11.556-11.683,19.123-11.683s15.007,4.654,19.123,11.683a63.552,63.552,0,0,0,12.094-5c-2.058-7.883-.412-14.247,4.939-19.629,5.351-5.351,11.746-8.453,19.629-6.4a65.3,65.3,0,0,0,5-12.094c-7-4.116-11.651-10.1-11.651-17.666Zm-49.1,31.122a31.122,31.122,0,1,1,31.122-31.122A31.138,31.138,0,0,1,124.787,155.909Z" transform="translate(-29 -29)" fill="#d33d1f"/>
    <path id="_3668833_maintenance_repair_service_icon" data-name="3668833_maintenance_repair_service_icon" d="M15.3,33.1,4.123,14.472l7.452-7.452L30.2,18.2V25.65L49.366,44.812v1.6L42.446,52.8,22.752,33.1ZM95.141,78.345H90.883A58.953,58.953,0,0,1,80.77,77.28L69.592,90.055l25.017,28.21c5.855,6.387,15.968,6.92,21.823.532a14.822,14.822,0,0,0-.532-21.823Zm18.1-20.226c8.516-8.516,11.178-21.291,7.984-32.469-.532-2.129-3.194-2.661-4.258-1.065L98.335,43.215l-14.9-14.9L102.061,9.682c1.6-1.6,1.065-3.726-1.065-4.258a31.019,31.019,0,0,0-32.469,7.984C58.947,22.989,56.818,37.892,62.14,49.6L8.913,96.974c-6.387,5.855-6.92,15.968-.532,21.823a14.822,14.822,0,0,0,21.823-.532L77.576,65.038a31.183,31.183,0,0,0,35.662-6.92Z" transform="translate(33.151 32.206)" fill="#124f7c"/>
  </g>
</svg>
