<svg data-name="027_APPLIANCES" viewBox="0 0 24 24" xmlns="http://www.w3.org/2000/svg"><path d="M18 22H6a3 3 0 0 1-3-3V5a3 3 0 0 1 3-3h12a3 3 0 0 1 3 3v14a3 3 0 0 1-3 3ZM6 4a1 1 0 0 0-1 1v14a1 1 0 0 0 1 1h12a1 1 0 0 0 1-1V5a1 1 0 0 0-1-1Z" fill="#ffffff" class="fill-333333"></path><path d="M12 19a5 5 0 0 1-5-5 5.11 5.11 0 0 1 .41-2 1 1 0 0 1 1.84.8A2.9 2.9 0 0 0 9 14a3 3 0 1 0 3-3 3.06 3.06 0 0 0-.85.12 1 1 0 0 1-.56-1.92A5.16 5.16 0 0 1 12 9a5 5 0 0 1 0 10Z" fill="#ffffff" class="fill-333333"></path><path d="M14.8 11.15 9.15 16.8a4 4 0 1 0 5.65-5.65ZM11 7a1 1 0 0 1 1-1 1 1 0 0 1 1 1 1 1 0 0 1-1 1 1 1 0 0 1-1-1ZM7 7a1 1 0 0 1 1-1 1 1 0 0 1 1 1 1 1 0 0 1-1 1 1 1 0 0 1-1-1Z" fill="#ffffff" class="fill-333333"></path></svg>